<?xml version="1.0" standalone="no"?>
<!DOCTYPE svg PUBLIC "-//W3C//DTD SVG 20010904//EN"
 "http://www.w3.org/TR/2001/REC-SVG-20010904/DTD/svg10.dtd">
<svg version="1.0" xmlns="http://www.w3.org/2000/svg"
 width="612.000000pt" height="306.000000pt" viewBox="0 0 612.000000 306.000000"
 preserveAspectRatio="xMidYMid meet">
<metadata>
Created by potrace 1.15, written by Peter Selinger 2001-2017
</metadata>
<g transform="translate(0.000000,306.000000) scale(0.100000,-0.100000)"
fill="#000000" stroke="none">
<path d="M2737 3053 c-4 -3 -7 -18 -7 -32 0 -85 63 -171 158 -218 72 -35 194
-44 275 -18 71 22 145 79 174 134 28 53 33 141 8 141 -11 0 -14 -7 -9 -24 9
-37 -14 -104 -51 -144 -162 -180 -525 -92 -525 126 0 39 -8 51 -23 35z"/>
<path d="M4706 2875 c-9 -10 -34 -16 -63 -16 -58 -1 -107 -29 -121 -67 -14
-42 9 -183 35 -211 26 -28 77 -40 166 -41 64 0 68 1 80 28 6 15 17 31 24 35
24 15 30 42 23 95 -3 29 -3 55 2 58 17 11 7 44 -19 61 -16 9 -43 30 -61 45
-38 32 -45 34 -66 13z m14 -78 c20 -5 30 -12 30 -25 0 -25 35 -56 55 -49 11 5
15 -1 15 -24 0 -24 -4 -30 -16 -25 -25 10 -54 -12 -54 -41 0 -15 -11 -36 -27
-51 -23 -21 -32 -23 -62 -16 -45 11 -53 40 -17 54 14 5 26 11 26 14 0 2 3 11
6 20 7 18 -52 76 -77 76 -21 0 -36 -18 -42 -50 -4 -21 -4 -20 -6 7 -1 41 28
90 76 125 35 27 37 27 49 9 7 -10 27 -21 44 -24z"/>
<path d="M1638 2869 c-2 -5 -27 -10 -57 -11 -46 0 -58 -4 -88 -31 -37 -35 -41
-53 -28 -155 13 -103 55 -131 197 -132 64 0 67 1 87 33 11 17 27 41 34 52 11
14 13 34 8 70 -4 28 -2 60 3 74 9 20 7 26 -12 40 -13 9 -38 28 -57 44 -33 27
-80 36 -87 16z m22 -72 c20 -5 30 -12 30 -25 0 -24 35 -56 54 -49 8 3 17 -1
20 -9 8 -21 -4 -44 -19 -38 -24 9 -55 -15 -55 -43 0 -15 -11 -36 -27 -51 -23
-21 -32 -23 -62 -16 -45 11 -53 40 -17 54 14 5 26 11 26 14 0 2 3 11 6 20 7
18 -52 76 -77 76 -21 0 -36 -18 -42 -50 -4 -21 -4 -20 -6 7 -1 41 28 90 76
125 35 27 37 27 49 9 7 -10 27 -21 44 -24z"/>
<path d="M2555 2623 c-43 -22 -75 -54 -75 -73 0 -12 -21 -23 -74 -40 l-73 -23
-64 22 c-34 11 -73 21 -85 21 -32 0 -74 -54 -74 -94 0 -50 48 -110 103 -129
43 -14 48 -14 87 5 22 11 45 28 50 38 13 25 155 70 236 74 38 2 77 7 86 11 17
7 38 54 38 88 0 33 -83 118 -115 117 -5 -1 -23 -8 -40 -17z"/>
<path d="M5615 2623 c-41 -22 -66 -44 -76 -69 -5 -16 -28 -29 -75 -44 l-67
-23 -72 23 c-84 26 -113 22 -138 -19 -42 -71 -2 -152 90 -185 36 -13 44 -12
81 4 22 10 45 27 51 38 15 29 151 72 240 76 84 4 108 20 118 79 4 30 1 42 -22
69 -29 35 -73 68 -90 68 -5 -1 -23 -8 -40 -17z m73 -29 c26 -18 27 -25 7 -91
-16 -52 -34 -68 -66 -58 -14 5 -19 16 -19 45 0 29 -6 43 -22 55 -19 13 -21 17
-8 25 8 5 24 16 35 24 26 20 45 20 73 0z"/>
<path d="M915 2538 c-93 -36 -142 -110 -129 -195 3 -26 10 -54 14 -62 5 -9 -8
-30 -38 -62 -26 -27 -50 -49 -54 -49 -4 0 -40 -20 -80 -44 -173 -106 -268
-267 -200 -339 30 -32 75 -41 112 -22 52 27 88 75 154 203 51 100 77 141 122
184 50 49 60 55 81 47 14 -5 52 -9 85 -9 61 0 63 1 108 48 42 44 48 55 54 109
4 33 3 71 -3 84 -11 30 -92 106 -127 119 -32 13 -39 12 -99 -12z m-283 -554
c-55 -109 -103 -167 -136 -162 -63 9 -2 130 106 212 40 30 74 53 76 51 2 -1
-19 -47 -46 -101z"/>
<path d="M3975 2538 c-61 -24 -89 -49 -116 -104 -17 -36 -19 -54 -14 -99 4
-30 11 -58 16 -61 18 -11 -66 -84 -157 -139 -187 -111 -287 -273 -215 -349 34
-36 66 -40 115 -16 53 25 88 73 157 213 41 83 67 122 113 167 51 50 63 57 82
50 12 -5 50 -9 84 -9 60 1 63 2 110 47 44 43 48 52 54 109 8 74 -3 102 -64
157 -40 36 -79 57 -103 55 -7 -1 -34 -10 -62 -21z m-280 -549 c-66 -132 -142
-205 -161 -154 -17 43 45 138 134 204 36 28 68 48 70 47 2 -2 -18 -46 -43 -97z"/>
<path d="M7 2413 c-4 -3 -7 -16 -6 -27 0 -12 3 -15 6 -8 8 20 51 14 68 -10 9
-14 11 -24 5 -26 -10 -4 -14 -32 -5 -32 13 0 65 31 65 39 0 16 39 19 57 6 23
-18 9 -44 -35 -65 -37 -18 -42 -29 -82 -164 -34 -119 -35 -129 -15 -146 18
-15 20 -61 3 -78 -28 -28 -71 -5 -47 24 10 13 10 17 -2 24 -21 14 -26 -58 -5
-78 12 -13 19 -13 46 -2 50 21 66 73 34 118 -18 26 -15 45 28 180 20 63 34 92
44 92 20 0 74 54 74 74 0 45 -75 72 -111 40 -15 -14 -19 -13 -39 15 -20 30
-65 42 -83 24z"/>
<path d="M3056 2405 c-26 -27 -28 -53 -6 -93 l21 -38 -21 -84 c-30 -119 -45
-150 -70 -150 -11 0 -32 -11 -45 -25 -60 -59 -7 -147 66 -110 29 15 30 15 56
-15 21 -25 31 -30 52 -25 31 8 60 42 61 72 0 12 -7 34 -17 50 -15 28 -15 34
11 123 35 125 46 150 63 150 19 0 73 54 73 74 0 44 -82 75 -110 41 -12 -14
-17 -12 -41 15 -31 33 -68 39 -93 15z m84 -45 c7 -14 7 -20 0 -20 -5 0 -10 -7
-10 -15 0 -8 3 -15 6 -15 12 0 50 24 67 41 21 23 27 23 51 6 27 -20 12 -53
-30 -69 -39 -14 -55 -49 -95 -201 -21 -81 -22 -87 -6 -105 20 -22 22 -63 5
-80 -18 -18 -46 -14 -58 8 -9 16 -8 20 5 20 22 0 18 18 -5 25 -13 4 -37 -2
-61 -14 -49 -26 -56 -26 -69 0 -14 25 11 69 39 69 39 0 59 33 90 147 17 62 31
118 31 124 0 6 -9 22 -20 36 -24 31 -25 46 -4 67 18 19 47 8 64 -24z"/>
<path d="M1753 2263 c-34 -7 -81 -59 -89 -98 -9 -49 21 -105 69 -129 49 -23
96 -15 135 24 59 58 42 157 -32 191 -42 19 -45 19 -83 12z"/>
<path d="M4801 2257 c-71 -25 -101 -115 -59 -177 68 -100 221 -58 221 62 0 90
-77 145 -162 115z"/>
<path d="M1306 1918 c-9 -12 -16 -28 -16 -35 0 -7 -11 -13 -24 -13 -14 0 -32
-7 -40 -16 -38 -38 0 -110 54 -102 l27 4 -27 -38 c-33 -45 -65 -194 -57 -263
14 -129 163 -223 338 -213 95 6 169 39 227 102 59 64 68 108 48 224 -20 112
-32 139 -87 186 -68 58 -138 79 -240 73 l-87 -4 -5 43 c-2 24 -10 51 -17 59
-19 23 -76 19 -94 -7z m73 -12 c6 -8 14 -37 18 -65 5 -47 12 -58 74 -122 66
-66 70 -69 106 -63 49 7 84 -15 67 -43 -8 -11 -21 -17 -38 -15 -28 3 -66 -13
-66 -28 0 -6 7 -10 16 -10 10 0 14 -7 12 -22 -2 -16 -11 -24 -30 -26 -32 -4
-47 19 -46 67 1 22 -8 41 -29 64 -16 18 -51 55 -77 84 -43 46 -53 52 -95 55
-44 3 -46 4 -46 33 0 29 2 30 48 33 31 2 47 8 47 17 0 7 -6 15 -12 18 -10 3
-10 7 1 20 16 21 35 22 50 3z m283 -128 c68 -29 123 -92 138 -159 32 -148 24
-203 -41 -268 -56 -55 -130 -82 -232 -82 -70 0 -88 4 -143 31 -71 35 -119 86
-135 144 -10 38 3 128 32 222 11 36 54 80 63 65 4 -5 2 -12 -4 -16 -22 -13
-50 -86 -50 -129 0 -59 46 -121 115 -156 41 -21 64 -25 130 -25 69 1 87 4 134
30 123 68 145 194 49 280 -60 55 -100 69 -196 68 -80 0 -100 10 -37 20 49 7
127 -4 177 -25z m-208 -164 c9 -8 16 -32 16 -52 0 -20 4 -42 8 -48 9 -14 47
-34 64 -34 26 0 52 28 53 56 1 23 7 30 26 32 13 2 32 11 42 19 15 15 19 14 38
-3 37 -33 40 -49 17 -79 -51 -66 -183 -94 -279 -60 -44 16 -109 70 -109 89 1
17 34 53 71 75 41 25 34 24 53 5z"/>
<path d="M4366 1918 c-9 -12 -16 -28 -16 -35 0 -7 -11 -13 -24 -13 -49 0 -72
-53 -41 -94 10 -13 27 -20 48 -20 l34 0 -28 -40 c-34 -49 -64 -185 -57 -257
13 -132 162 -228 337 -216 136 8 245 80 277 182 16 50 16 59 -1 147 -9 51 -23
105 -31 119 -21 43 -88 95 -150 119 -50 19 -73 21 -146 17 l-88 -4 0 29 c0 16
-7 42 -15 58 -13 24 -22 30 -50 30 -24 0 -39 -7 -49 -22z m72 -11 c6 -7 14
-36 18 -64 6 -48 13 -59 76 -123 61 -62 74 -70 97 -65 38 8 81 -10 81 -34 0
-20 -22 -33 -43 -25 -18 6 -67 -13 -67 -26 0 -5 7 -10 16 -10 10 0 14 -7 12
-22 -2 -17 -11 -24 -30 -26 -22 -3 -30 2 -38 23 -5 14 -10 38 -10 53 0 20 -20
49 -75 109 -72 78 -78 82 -123 85 -45 3 -47 4 -47 33 0 29 2 30 48 33 31 2 47
8 47 17 0 7 -6 15 -12 18 -10 3 -10 7 1 20 16 20 35 22 49 4z m284 -129 c68
-29 123 -92 138 -159 32 -145 24 -200 -37 -263 -48 -49 -101 -75 -171 -84
-121 -16 -241 22 -301 95 -47 57 -54 95 -36 192 19 100 30 129 57 158 32 34
41 16 12 -23 -54 -70 -41 -169 29 -229 141 -121 397 -56 424 108 8 51 -12 101
-59 142 -60 55 -100 69 -196 68 -46 0 -80 3 -75 8 25 24 145 17 215 -13z
m-192 -217 c0 -20 4 -41 8 -47 10 -15 47 -34 66 -34 24 0 56 37 56 65 0 19 5
25 22 25 12 0 30 8 41 17 18 17 20 16 48 -15 34 -38 30 -56 -24 -95 -62 -46
-155 -60 -238 -35 -42 12 -119 72 -119 92 0 14 55 68 85 84 29 15 55 -12 55
-57z"/>
<path d="M2362 1774 c-29 -20 -52 -66 -52 -104 0 -24 6 -33 27 -41 42 -16 127
-16 146 0 48 39 -12 161 -78 161 -11 0 -31 -7 -43 -16z"/>
<path d="M5418 1767 c-33 -28 -48 -57 -48 -95 0 -36 35 -54 109 -55 78 -1 99
32 67 107 -27 64 -81 83 -128 43z"/>
<path d="M1 1449 c1 -41 1 -42 11 -16 12 32 26 34 62 6 33 -26 33 -35 -4 -66
-29 -24 -70 -90 -70 -113 0 -16 49 -12 81 7 31 18 59 67 59 103 0 53 -49 108
-104 117 l-36 6 1 -44z"/>
<path d="M3025 1476 c-43 -19 -65 -57 -65 -112 0 -39 5 -51 34 -80 28 -28 42
-34 76 -34 23 0 55 8 71 17 29 17 59 67 59 97 0 35 -30 86 -62 106 -38 23 -70
25 -113 6z"/>
<path d="M723 1365 c-51 -22 -61 -56 -35 -110 26 -53 71 -82 103 -64 28 15 73
113 65 143 -4 15 -18 28 -37 35 -41 14 -57 13 -96 -4z"/>
<path d="M3783 1365 c-51 -22 -61 -56 -35 -110 26 -53 71 -82 103 -64 28 15
73 113 65 143 -4 15 -18 28 -37 35 -41 14 -57 13 -96 -4z"/>
<path d="M2142 1304 c-26 -18 -30 -65 -7 -84 20 -17 19 -32 -5 -53 -27 -22
-25 -59 3 -85 29 -27 67 -28 100 -2 30 24 52 24 177 6 68 -11 98 -20 107 -33
30 -41 44 -53 68 -59 53 -13 85 54 49 104 -14 20 -14 24 6 52 27 37 23 67 -11
93 -30 22 -59 17 -89 -16 -20 -20 -23 -21 -130 -9 -131 15 -138 17 -146 48
-13 49 -77 70 -122 38z m69 -14 c10 -6 25 -26 33 -44 16 -38 18 -38 180 -57
99 -12 109 -11 117 4 25 43 89 45 89 3 0 -27 -35 -63 -45 -47 -9 16 -25 13
-25 -5 0 -9 14 -28 30 -42 36 -32 42 -82 10 -82 -20 0 -46 22 -65 55 -11 19
-97 39 -220 50 -63 6 -72 5 -89 -14 -40 -44 -116 -11 -81 35 13 17 16 17 25 4
8 -13 11 -13 19 -1 11 16 -4 64 -25 82 -17 14 -18 41 -2 57 15 15 24 15 49 2z"/>
<path d="M5197 1302 c-21 -23 -22 -65 -2 -82 20 -17 19 -32 -5 -53 -26 -22
-25 -61 2 -87 28 -25 68 -26 101 0 30 24 51 24 177 5 68 -10 98 -19 108 -32
43 -61 80 -77 112 -48 24 22 26 72 4 96 -14 16 -14 20 6 47 27 36 23 69 -11
95 -30 22 -59 17 -89 -16 -20 -20 -23 -21 -130 -9 -131 15 -138 17 -146 48
-13 51 -94 73 -127 36z m83 -22 c11 -11 20 -26 20 -34 0 -27 31 -38 157 -53
l129 -16 27 27 c33 33 70 32 75 -2 4 -29 -27 -67 -42 -52 -15 15 -26 12 -26
-6 0 -8 14 -28 31 -43 37 -34 38 -74 2 -79 -17 -3 -28 6 -44 32 -24 42 -46 49
-197 67 -100 12 -103 12 -125 -9 -31 -29 -75 -29 -86 1 -12 29 14 61 29 37 9
-13 11 -13 19 -1 11 17 -1 53 -29 89 -19 23 -19 26 -4 44 22 23 39 23 64 -2z"/>
<path d="M1153 1029 c-13 -4 -23 -13 -23 -18 0 -6 -17 -19 -38 -30 l-38 -20 1
-90 c1 -64 5 -95 16 -108 8 -10 23 -30 32 -45 16 -26 22 -28 80 -28 148 1 179
24 196 150 14 97 10 114 -34 148 -17 14 -41 20 -75 20 -27 1 -59 7 -72 15 -16
10 -30 12 -45 6z m113 -56 c10 -10 27 -23 38 -28 12 -6 22 -20 24 -32 2 -12
10 -27 18 -33 8 -7 14 -22 14 -34 -1 -19 -2 -18 -16 7 -19 36 -51 35 -88 -3
-22 -22 -27 -35 -22 -55 4 -16 13 -25 26 -25 15 0 20 -7 20 -25 0 -20 -6 -25
-36 -31 -28 -5 -39 -2 -55 15 -11 11 -25 21 -30 21 -7 0 -9 10 -5 24 8 33 -18
60 -50 52 -21 -6 -24 -3 -24 25 0 24 3 30 16 25 22 -8 54 11 54 32 0 25 20 42
48 42 15 0 26 7 29 20 7 25 16 25 39 3z"/>
<path d="M4191 1011 c-6 -10 -24 -24 -41 -31 -16 -7 -30 -15 -31 -19 -1 -3 -2
-46 -3 -95 -1 -70 2 -93 14 -105 9 -9 24 -28 33 -43 16 -26 22 -28 85 -28 143
0 174 25 192 151 13 96 9 113 -36 148 -19 15 -41 21 -80 21 -29 0 -56 5 -59
10 -11 18 -64 11 -74 -9z m136 -41 c10 -11 23 -20 31 -20 7 0 19 -15 27 -34 8
-19 19 -37 25 -41 5 -3 10 -16 10 -28 -1 -20 -2 -20 -16 6 -19 35 -51 35 -87
-2 -34 -35 -34 -74 1 -79 15 -2 22 -10 22 -27 0 -18 -7 -24 -36 -30 -29 -5
-40 -2 -56 14 -10 12 -24 21 -29 21 -7 0 -9 10 -5 24 8 33 -18 60 -50 52 -21
-6 -24 -3 -24 25 0 24 3 30 16 25 22 -8 54 11 54 32 0 25 20 42 48 42 15 0 26
7 29 20 3 11 9 20 14 20 5 0 17 -9 26 -20z"/>
<path d="M259 867 c-19 -13 -42 -26 -52 -30 -15 -6 -17 -16 -15 -64 3 -54 5
-57 43 -79 22 -13 53 -23 68 -24 35 0 186 -99 186 -121 1 -9 19 -33 41 -53 37
-33 44 -36 83 -30 89 13 146 77 133 149 -11 54 -42 69 -128 61 -71 -6 -71 -6
-134 35 -52 34 -64 46 -64 68 0 34 -73 111 -105 111 -12 0 -37 -10 -56 -23z"/>
<path d="M3316 865 c-20 -14 -41 -25 -45 -25 -13 0 -21 -27 -21 -75 0 -40 3
-45 44 -69 25 -14 57 -26 71 -26 31 0 185 -104 185 -125 0 -7 18 -29 39 -48
36 -32 43 -35 83 -30 59 8 95 28 118 66 24 38 25 68 5 107 -19 37 -43 44 -122
35 -65 -7 -65 -7 -129 37 -47 32 -64 49 -64 66 0 31 -76 112 -105 112 -12 0
-39 -11 -59 -25z"/>
<path d="M1853 794 c-24 -24 -25 -31 -21 -93 7 -91 51 -172 149 -276 41 -44
87 -101 101 -127 l26 -47 -29 -58 c-21 -41 -28 -67 -24 -88 9 -48 37 -105 51
-105 10 0 8 11 -6 42 -11 24 -19 59 -19 78 0 33 1 31 18 -20 23 -71 41 -100
64 -100 17 0 17 2 -2 27 -26 32 -54 124 -45 146 10 26 20 20 22 -14 3 -40 39
-123 62 -144 12 -11 31 -15 57 -13 31 2 39 7 41 26 5 30 22 28 22 -3 0 -14 5
-25 10 -25 6 0 10 16 10 35 0 19 5 35 11 35 7 0 10 -14 7 -35 -3 -31 -1 -35
18 -35 25 0 30 10 39 92 7 60 -12 114 -51 150 -25 22 -101 48 -144 48 -29 0
-38 6 -54 33 -50 85 -66 131 -86 237 -34 185 -81 260 -162 260 -29 0 -46 -7
-65 -26z m112 -73 c17 -25 33 -73 45 -137 11 -55 22 -107 24 -117 4 -18 4 -18
-15 -1 -78 70 -151 240 -120 278 21 25 39 19 66 -23z"/>
<path d="M4915 794 c-65 -70 -6 -241 127 -371 38 -37 82 -92 98 -121 l28 -52
-30 -57 c-24 -45 -28 -63 -23 -92 9 -50 35 -101 51 -101 10 0 8 10 -6 42 -11
24 -19 59 -19 78 0 33 1 31 18 -20 21 -65 41 -100 58 -100 17 0 16 3 -6 42
-25 42 -43 111 -35 132 10 27 24 18 24 -16 0 -37 38 -126 63 -146 9 -7 32 -12
54 -10 31 2 39 7 41 26 5 30 22 28 22 -3 0 -14 5 -25 10 -25 6 0 10 13 10 29
0 17 5 33 12 37 8 5 9 -3 5 -29 -5 -34 -4 -37 18 -37 19 0 26 7 30 28 3 15 9
44 14 65 7 30 4 47 -14 85 -12 26 -31 55 -41 64 -27 24 -112 51 -145 46 -26
-4 -32 1 -70 65 -35 58 -46 91 -70 209 -40 196 -79 258 -162 258 -28 0 -44 -7
-62 -26z m110 -73 c15 -22 32 -70 41 -117 8 -43 19 -96 24 -117 8 -38 8 -38
-11 -21 -78 70 -151 241 -120 278 21 25 39 19 66 -23z"/>
<path d="M2610 594 c-60 -40 -64 -72 -17 -116 70 -66 124 -69 146 -7 27 78 -3
139 -68 139 -20 0 -48 -7 -61 -16z"/>
<path d="M5670 594 c-59 -40 -64 -73 -18 -116 72 -67 119 -71 144 -12 32 77 2
144 -65 144 -20 0 -48 -7 -61 -16z"/>
<path d="M1498 432 c-70 -9 -116 -102 -84 -168 18 -38 69 -74 104 -74 38 0 92
30 107 61 48 93 -23 194 -127 181z"/>
<path d="M4541 426 c-102 -36 -104 -181 -4 -222 51 -22 95 -11 132 32 25 27
31 44 31 79 0 64 -36 103 -110 120 -8 2 -31 -2 -49 -9z"/>
<path d="M134 403 c-19 -13 -34 -50 -34 -83 l0 -31 -51 7 c-42 6 -51 4 -47 -7
2 -8 18 -15 34 -17 49 -6 55 -25 7 -20 l-43 4 0 -60 0 -60 46 44 c57 57 81 97
82 137 1 62 34 92 63 56 11 -13 11 -17 2 -20 -7 -3 -13 -11 -13 -19 0 -10 12
-14 39 -14 49 0 76 -23 61 -51 -8 -14 -21 -19 -52 -19 -39 0 -46 -5 -117 -81
-65 -70 -77 -87 -81 -125 -4 -32 -2 -44 7 -44 8 0 13 13 13 33 0 20 8 41 18
50 17 16 21 15 59 -10 23 -15 47 -37 54 -50 28 -52 56 -9 46 68 -3 22 -17 55
-31 74 -32 42 -17 56 17 15 15 -18 32 -59 43 -105 11 -47 23 -75 31 -75 9 0
12 8 7 27 -23 101 -35 138 -57 167 l-25 32 28 -4 c54 -8 92 64 54 102 -8 9
-25 16 -37 16 -15 0 -27 11 -37 33 -11 24 -22 33 -45 35 -16 1 -35 -1 -41 -5z"/>
<path d="M3194 403 c-18 -13 -34 -50 -34 -80 l0 -28 -102 0 c-118 0 -166 -16
-237 -80 -41 -37 -59 -80 -77 -177 -5 -31 -3 -38 10 -38 9 0 16 8 16 20 0 56
24 125 57 161 55 61 130 92 220 92 41 -1 79 -5 85 -11 7 -7 -17 -10 -74 -10
-95 1 -138 -14 -196 -67 -45 -40 -67 -98 -58 -149 5 -27 12 -36 26 -36 11 0
20 6 20 13 0 8 11 24 25 37 23 21 26 22 42 8 10 -9 29 -18 43 -20 17 -2 24 -8
22 -20 -2 -11 3 -18 13 -18 8 0 15 7 15 15 0 8 7 15 15 15 8 0 15 5 15 10 0
15 -42 29 -72 23 -20 -4 -28 0 -33 17 -10 31 20 52 66 45 30 -4 42 1 77 30 60
52 106 114 108 147 5 74 32 105 63 72 12 -12 13 -18 4 -21 -7 -3 -13 -11 -13
-19 0 -10 12 -14 38 -14 48 0 65 -12 60 -41 -3 -21 -10 -25 -51 -29 -44 -6
-53 -12 -122 -85 -53 -57 -74 -88 -75 -107 0 -14 -3 -33 -6 -42 -4 -11 -1 -16
10 -16 12 0 16 9 16 34 0 70 54 72 114 5 52 -56 70 -48 64 30 -3 44 -11 68
-31 94 -33 44 -19 59 16 17 16 -19 32 -58 42 -105 11 -50 22 -75 31 -75 11 0
13 8 8 27 -23 101 -35 138 -57 167 l-25 32 28 -4 c54 -8 92 64 54 102 -8 9
-25 16 -37 16 -15 0 -27 11 -37 33 -11 24 -22 33 -45 35 -16 1 -35 -1 -41 -5z"/>
<path d="M6031 244 c-114 -31 -186 -123 -166 -214 8 -34 40 -42 50 -11 3 10
14 26 25 36 18 16 22 17 38 2 9 -8 28 -17 42 -19 17 -2 24 -8 22 -20 -2 -11 3
-18 13 -18 8 0 15 7 15 15 0 8 7 15 15 15 8 0 15 5 15 10 0 15 -42 29 -72 23
-27 -5 -42 14 -32 41 6 16 58 31 74 21 6 -3 19 -3 30 0 17 5 20 15 20 71 0 73
1 72 -89 48z"/>
<path d="M896 129 c-18 -27 -21 -65 -6 -103 9 -25 13 -26 85 -26 68 0 76 2 90
24 26 40 16 76 -28 99 -21 11 -58 22 -81 24 -37 5 -46 2 -60 -18z"/>
<path d="M3956 128 c-18 -26 -20 -65 -6 -102 9 -25 13 -26 84 -26 66 0 77 3
90 22 9 12 16 35 16 51 0 24 -7 31 -52 52 -68 32 -112 32 -132 3z"/>
</g>
</svg>
